<?xml version="1.0" encoding="UTF-8"?>
<svg width="74px" height="80px" viewBox="0 0 74 80" version="1.1" xmlns="http://www.w3.org/2000/svg" xmlns:xlink="http://www.w3.org/1999/xlink">
    <!-- Generator: Sketch 51.1 (57501) - http://www.bohemiancoding.com/sketch -->
    <title>bitcoin (2)</title>
    <desc>Created with Sketch.</desc>
    <defs></defs>
    <g id="Page-1" stroke="none" stroke-width="1" fill="none" fill-rule="evenodd">
        <g id="A-ADS-Design-Concept" transform="translate(-198.000000, -6062.000000)">
            <g id="Group-16" transform="translate(198.000000, 6062.000000)">
                <g id="bitcoin-(2)">
                    <circle id="Oval-5" fill="#FFD54F" cx="35" cy="23" r="21"></circle>
                    <path d="M2.5880452,31.3082263 C4.57749564,32.6071391 6.24657776,33.2565954 7.59529155,33.2565954 C8.94400534,33.2565954 28.6862427,33.2565954 66.8220035,33.2565954 L66.8220035,76.7378532 L5.58412747,76.7378532 C3.91846115,76.7378532 2.5576012,75.4077856 2.51948565,73.7425555 L1.54820378,31.3082263 L2.5880452,31.3082263 Z" id="Path-14" fill="#03A9F4"></path>
                    <path d="M71.7812088,48.3848804 C56.7637221,47.5240176 48.8756349,50.0277589 48.1169471,55.8961042 C46.9789155,64.6986221 62.4472899,65.1642161 69.3013626,64.5007147 L71.7812088,63.1833907 L71.7812088,48.3848804 Z" id="Path-16" fill="#FFD54F"></path>
                    <circle id="Oval-8" fill="#FFFFFF" cx="55.5" cy="56.5" r="2.5"></circle>
                    <path d="M55.5,52.5577006 C53.1626228,52.5577006 51.2678571,54.4513282 51.2678571,56.7873016 C51.2678571,59.123275 53.1626228,61.0169026 55.5,61.0169026 C57.8373772,61.0169026 59.7321429,59.123275 59.7321429,56.7873016 C59.7321429,54.4513282 57.8373772,52.5577006 55.5,52.5577006 Z M55.5,58.3756328 C54.622317,58.3756328 53.9107143,57.6644575 53.9107143,56.7873016 C53.9107143,55.9101457 54.622317,55.1989704 55.5,55.1989704 C56.377683,55.1989704 57.0892857,55.9101457 57.0892857,56.7873016 C57.0892857,57.6644575 56.377683,58.3756328 55.5,58.3756328 Z" id="Shape" fill="#263238" fill-rule="nonzero"></path>
                    <path d="M68.7142857,37.1098413 L68.7142857,19.8095238 C68.7142857,19.0802032 68.1226161,18.4888889 67.3928571,18.4888889 L56.425,18.4888889 C54.2492679,6.30850794 42.6055,-1.80299683 30.4177991,0.371263492 C21.1747366,2.02024127 13.9392545,9.25137778 12.2892857,18.4888889 L7.92857143,18.4888889 C3.55150446,18.493181 0.00429464286,22.0382603 0,26.4126984 L0,71.3142857 C0.00429464286,75.6887238 3.55150446,79.2338032 7.92857143,79.2380952 L67.3928571,79.2380952 C68.1226161,79.2380952 68.7142857,78.646781 68.7142857,77.9174603 L68.7142857,65.8996825 C71.7884241,65.2679238 73.9960357,62.5652444 74,59.4285714 L74,43.5809524 C73.9960357,40.4442794 71.7884241,37.7416 68.7142857,37.1098413 Z M68.7103214,39.8448762 C70.2945491,40.4053206 71.3545,41.9014349 71.3571429,43.5809524 C71.3554911,43.8252698 71.3307143,44.068927 71.2831429,44.3086222 C71.2699286,44.3825778 71.2487857,44.4525714 71.2302857,44.5252063 C71.1913036,44.686654 71.1419152,44.8456254 71.0822857,45.0006349 C71.0532143,45.0759111 71.0241429,45.1498667 70.9911071,45.221181 C70.91975,45.3755302 70.8386473,45.5250921 70.7479643,45.6688762 C70.7136071,45.7230222 70.6832143,45.7811302 70.6475357,45.8339556 C70.5162188,46.022146 70.3688795,46.198946 70.2075,46.3622095 C70.17975,46.3899429 70.1467143,46.4137143 70.1176429,46.4414476 C69.9785625,46.5728508 69.8307277,46.6946794 69.6749643,46.8059429 C69.6128571,46.8495238 69.5428214,46.8891429 69.4833571,46.9287619 C69.3464241,47.0146032 69.2043705,47.0916952 69.0578571,47.159873 C68.9865,47.1928889 68.9151429,47.2272254 68.8424643,47.2562794 C68.8015,47.272127 68.7565714,47.2800508 68.7103214,47.2958984 L68.7103214,39.8448762 Z M54.8974286,31.4812952 C55.1788929,30.8447492 55.4365714,30.1989587 55.65725,29.5412825 C55.685,29.4580825 55.7074643,29.3722413 55.7338929,29.2890413 C55.9334286,28.6709841 56.1025714,28.0463238 56.2466071,27.4137397 C56.2743571,27.2935619 56.3060714,27.1747048 56.3325,27.0532063 C56.4752143,26.3783619 56.5835714,25.6982349 56.6628571,25.0128254 C56.6800357,24.8688762 56.6919286,24.7262476 56.7064643,24.5822984 C56.7751786,23.8744381 56.8214286,23.1639365 56.8214286,22.4507937 C56.8214286,22.0229079 56.8068929,21.588419 56.7751786,21.1301587 L66.0714286,21.1301587 L66.0714286,31.6952381 L54.8128571,31.6952381 C54.8445714,31.6252444 54.8657143,31.5512889 54.8974286,31.4812952 Z M34.3571429,2.64126984 C45.2742902,2.71324444 54.1065536,11.5402032 54.1785714,22.4507937 C54.1762589,23.2060317 54.1295134,23.9606095 54.0385,24.7104 C54.0385,24.7764317 54.0279286,24.8424635 54.0186786,24.9111365 C53.9253527,25.6221333 53.7930446,26.3276825 53.62225,27.0241524 C53.5984643,27.1218794 53.5786429,27.2182857 53.5535357,27.3160127 C53.3784464,27.994819 53.1675134,28.6640508 52.9218929,29.3207365 C52.88225,29.4277079 52.8426071,29.5346794 52.8003214,29.6416508 C52.5442946,30.2923937 52.2545714,30.9294349 51.9321429,31.5499683 C51.9070357,31.5988317 51.8792857,31.6463746 51.8541786,31.6952381 L48.8148929,31.6952381 L45.5509643,31.6952381 L41.2787857,31.6952381 C42.9936696,29.1412952 42.4703839,25.7008762 40.0736429,23.7714286 C42.6231741,21.7222984 43.0280268,17.9956317 40.9776652,15.4476317 C40.2847411,14.5865778 39.3646964,13.9364952 38.3214286,13.5708444 L38.3214286,10.5650794 L35.6785714,10.5650794 L35.6785714,13.2063492 L33.0357143,13.2063492 L33.0357143,10.5650794 L30.3928571,10.5650794 L30.3928571,13.2063492 L27.75,13.2063492 C27.0202411,13.2063492 26.4285714,13.7976635 26.4285714,14.5269841 L26.4285714,31.6952381 L16.8561429,31.6952381 C16.8310357,31.6463746 16.8032857,31.5988317 16.7781786,31.5499683 C16.4560804,30.9299302 16.1666875,30.2933841 15.9113214,29.6429714 C15.8690357,29.5373206 15.8307143,29.4303492 15.7910714,29.3246984 C15.5442946,28.6678476 15.3330313,27.9981206 15.1581071,27.318654 C15.133,27.220927 15.1131786,27.1245206 15.0893929,27.0267937 C14.918433,26.3303238 14.786125,25.6249397 14.6929643,24.9137778 C14.6837143,24.847746 14.67975,24.7817143 14.6731429,24.7156825 C14.5829554,23.9640762 14.5370357,23.2078476 14.5357143,22.4507937 C14.6077321,11.5402032 23.4399955,2.71324444 34.3571429,2.64126984 Z M36.3392857,22.4507937 L29.0714286,22.4507937 L29.0714286,15.847619 L36.3392857,15.847619 C38.1638482,15.847619 39.6428571,17.3257397 39.6428571,19.1492063 C39.6428571,20.972673 38.1638482,22.4507937 36.3392857,22.4507937 Z M39.6428571,28.3936508 C39.6428571,30.2171175 38.1638482,31.6952381 36.3392857,31.6952381 L29.0714286,31.6952381 L29.0714286,25.0920635 L36.3392857,25.0920635 C38.1638482,25.0920635 39.6428571,26.5701841 39.6428571,28.3936508 Z M7.92857143,21.1301587 L11.9391071,21.1301587 C11.9073929,21.588419 11.8928571,22.0229079 11.8928571,22.4507937 C11.8928571,23.1639365 11.9391071,23.8744381 12.0078214,24.5822984 C12.0223571,24.7262476 12.03425,24.8688762 12.0514286,25.0128254 C12.1307143,25.6982349 12.2390714,26.3783619 12.3817857,27.0532063 C12.4082143,27.1747048 12.4399286,27.2935619 12.4676786,27.4137397 C12.6117143,28.0463238 12.7808571,28.6709841 12.9803929,29.2890413 C13.0068214,29.3722413 13.0292857,29.4580825 13.0570357,29.5412825 C13.2777143,30.2016 13.5353929,30.8447492 13.8168571,31.4812952 C13.8485714,31.5512889 13.8697143,31.6252444 13.9014286,31.6952381 L7.92857143,31.6952381 C5.00937054,31.6952381 2.64285714,29.330146 2.64285714,26.4126984 C2.64285714,23.4952508 5.00937054,21.1301587 7.92857143,21.1301587 Z M66.0714286,76.5968254 L7.92857143,76.5968254 C5.00937054,76.5968254 2.64285714,74.2317333 2.64285714,71.3142857 L2.64285714,32.3027302 C4.09196875,33.6113143 5.9755,34.3360127 7.92857143,34.3365079 L66.0714286,34.3365079 L66.0714286,47.5428571 L55.8316786,47.5428571 C50.7532634,47.4877206 46.5311339,51.4369143 46.25,56.5046857 C46.0939063,61.6079492 50.1065893,65.8712889 55.2129196,66.027454 C55.308558,66.0304254 55.4043616,66.031746 55.5,66.031746 L66.0714286,66.031746 L66.0714286,76.5968254 Z M71.3571429,59.4285714 C71.3571429,61.6166984 69.5822991,63.3904762 67.3928571,63.3904762 L55.5,63.3904762 C51.8510402,63.3922921 48.8913705,60.4373714 48.8897188,56.7904381 C48.8897188,56.7211048 48.8907098,56.6517714 48.8928571,56.5826032 C49.1226205,52.9389714 52.17925,50.1204063 55.8316786,50.184127 L67.3928571,50.184127 C67.8041518,50.1811556 68.2142902,50.1397206 68.6178214,50.0599873 C68.7499643,50.0362159 68.86625,49.9979175 68.9904643,49.9662222 C69.2564018,49.901181 69.5180446,49.820127 69.7740714,49.7232254 C69.9062143,49.6704 70.0383571,49.6136127 70.1705,49.5528635 C70.4068705,49.4422603 70.6363036,49.3174603 70.8576429,49.1791238 C70.9726071,49.1078095 71.0888929,49.0470603 71.1985714,48.9625397 C71.2501071,48.9255619 71.3095714,48.8978286 71.3597857,48.8608508 L71.3571429,59.4285714 Z" id="Shape" fill="#263238" fill-rule="nonzero"></path>
                </g>
            </g>
        </g>
    </g>
</svg>