<?xml version="1.0" encoding="UTF-8"?>
<svg width="96px" height="76px" viewBox="0 0 96 76" version="1.1" xmlns="http://www.w3.org/2000/svg" xmlns:xlink="http://www.w3.org/1999/xlink">
    <!-- Generator: Sketch 51.3 (57544) - http://www.bohemiancoding.com/sketch -->
    <title>marketing</title>
    <desc>Created with Sketch.</desc>
    <defs></defs>
    <g id="Main-pages" stroke="none" stroke-width="1" fill="none" fill-rule="evenodd">
        <g id="A-ADS-Design-Concept" transform="translate(-781.000000, -6064.000000)">
            <g id="marketing" transform="translate(781.000000, 6064.000000)">
                <polygon id="Path-15" fill="#03A9F4" points="36.773178 28.3268114 36.773178 46.0819962 71.6742796 59.2925135 71.6742796 11.6937582"></polygon>
                <rect id="Rectangle-3" fill="#03A9F4" x="10.0173913" y="46.7692308" width="14.1913043" height="26.7252747"></rect>
                <g>
                    <rect id="Rectangle-2" fill="#FFD54F" x="72" y="8" width="6" height="56" rx="3"></rect>
                    <path d="M35.2371593,45.1201939 L35.2371593,28.6580472 L10.9419999,28.6580472 C5.69677792,29.2821769 3.07416691,32.025868 3.07416691,36.8891206 C3.07416691,41.7523731 5.69677792,44.4960642 10.9419999,45.1201939 L35.2371593,45.1201939 Z" id="Path-2" fill="#FFD54F"></path>
                    <path d="M86.0686902,33.7197361 C85.4308191,30.5632296 82.9753347,28.0961372 79.8336798,27.4552507 L79.8336798,9.6483905 C79.8336798,6.99039578 77.6891476,4.83572559 75.043659,4.83572559 C72.3981705,4.83572559 70.2536383,6.99039578 70.2536383,9.6483905 L70.2536383,10.2194934 L36.3786112,25.6906069 L11.1767152,25.6906069 C5.00417464,25.7327177 0.0343284823,30.794438 0.0762411642,36.9963588 C0.113762994,42.520095 4.14396674,47.1962005 9.58004158,48.0229763 L9.58004158,74.2183113 C9.58004158,75.1042427 10.2949522,75.822533 11.1767152,75.822533 L23.950104,75.822533 C24.8318669,75.822533 25.5467775,75.1042427 25.5467775,74.2183113 L25.5467775,59.348781 C30.025447,59.1041372 33.5317422,55.3833456 33.5301455,50.8768865 L33.5301455,48.1497098 L36.4440748,48.1497098 L70.2536383,60.5022164 L70.2536383,60.9834828 C70.2536383,63.6414776 72.3981705,65.7961478 75.043659,65.7961478 C77.6891476,65.7961478 79.8336798,63.6414776 79.8336798,60.9834828 L79.8336798,43.1766227 C84.1546778,42.2951029 86.9460624,38.0611609 86.0686902,33.7197361 Z M22.3534304,72.6140897 L12.7733888,72.6140897 L12.7733888,68.4030079 L12.7733888,65.1945646 L12.7733888,61.9861214 L12.7733888,58.7776781 L12.7733888,55.5692348 L12.7733888,52.3607916 L12.7733888,48.1497098 L22.3534304,48.1497098 L22.3534304,72.6140897 Z M30.3367983,50.8768865 C30.3457796,53.6116834 28.2597256,55.8934881 25.5467775,56.1162744 L25.5467775,48.1497098 L30.3368272,48.1497098 L30.3367983,50.8768865 Z M35.1268191,44.9412665 L11.1767152,44.9412665 C6.76770062,44.9402639 3.19414553,41.3484116 3.19514345,36.9183536 C3.19554262,34.7919578 4.03639085,32.7529921 5.53247401,31.2492348 C7.02596258,29.7398628 9.05832848,28.8936359 11.1767152,28.8990501 L35.1268191,28.8990243 L35.1268191,44.9412665 Z M70.2536383,57.0884327 L38.3201663,45.422533 L38.3201663,28.3279472 L70.2536383,13.7439683 L70.2536383,57.0884327 Z M76.6403326,60.9834828 C76.6403326,61.8694142 75.925422,62.5877045 75.043659,62.5877045 C74.161896,62.5877045 73.4469854,61.8694142 73.4469854,60.9834828 L73.4469854,59.3792612 L73.4469854,9.6483905 C73.4469854,8.7624591 74.161896,8.04416887 75.043659,8.04416887 C75.925422,8.04416887 76.6403326,8.7624591 76.6403326,9.6483905 L76.6403326,60.9834828 Z M82.7635759,36.8896781 C82.2853721,38.2687071 81.20642,39.3529604 79.8336798,39.8334248 L79.8336798,30.7984485 C82.3169064,31.6675356 83.6285738,34.3947124 82.7635759,36.8896781 Z" id="Shape" fill="#263238" fill-rule="nonzero"></path>
                    <path d="M17.5,39.452501 C18.8807119,39.452501 20,38.3332129 20,36.952501 C20,35.5717892 18.8807119,34.452501 17.5,34.452501 C16.1192881,34.452501 15,35.5717892 15,36.952501 C15,38.3332129 16.1192881,39.452501 17.5,39.452501 Z" id="Oval-7" fill="#FFFFFF"></path>
                    <path d="M17.5634096,32.1074934 C14.917921,32.1074934 12.7733888,34.2621636 12.7733888,36.9201583 C12.7733888,39.578153 14.917921,41.7328232 17.5634096,41.7328232 C20.2088981,41.7328232 22.3534304,39.578153 22.3534304,36.9201583 C22.3534304,34.2621636 20.2088981,32.1074934 17.5634096,32.1074934 Z M17.5634096,38.5243799 C16.6816466,38.5243799 15.966736,37.8060897 15.966736,36.9201583 C15.966736,36.0342269 16.6816466,35.3159367 17.5634096,35.3159367 C18.4451726,35.3159367 19.1600832,36.0342269 19.1600832,36.9201583 C19.1600832,37.8060897 18.4451726,38.5243799 17.5634096,38.5243799 Z" id="Shape" fill="#263238" fill-rule="nonzero"></path>
                    <path d="M95.5323742,0.737340369 C95.5323742,0.737139841 95.5321746,0.737139841 95.5321746,0.736939314 C95.0429938,-0.000200527988 94.051659,-0.199324539 93.3179875,0.292369393 C93.3177879,0.292369393 93.3177879,0.292569921 93.3175884,0.292569921 L83.7375468,6.70945646 C83.0038753,7.2011504 82.8058877,8.19737203 83.2952682,8.93451187 C83.7846486,9.67165171 84.776183,9.8705752 85.5098545,9.37888127 L95.089896,2.96199472 C95.8235676,2.47030079 96.0217547,1.47427968 95.5323742,0.737340369 Z" id="Shape" fill="#263238" fill-rule="nonzero"></path>
                    <path d="M95.7102037,22.1244222 C95.5174054,21.3038628 94.7252557,20.7732665 93.8971809,20.9100264 L93.8844075,20.9100264 L85.9010395,22.514248 C85.0368399,22.6905119 84.4786029,23.5373404 84.6540374,24.4056253 C84.8053222,25.1537942 85.4603576,25.691409 86.2203742,25.6906069 C86.3275509,25.6912084 86.4347277,25.6803799 86.5397089,25.6585224 L94.5230769,24.0543008 C95.381289,23.8507652 95.9127817,22.9866913 95.7102037,22.1244222 Z" id="Shape" fill="#263238" fill-rule="nonzero"></path>
                    <path d="M94.5230769,46.5775726 L86.5397089,44.9733509 C85.6814969,44.7698153 84.8214886,45.3038206 84.6189106,46.1660897 C84.4163326,47.0283588 84.9478254,47.8924327 85.8060374,48.0959683 C85.841763,48.1043905 85.8776881,48.1116095 85.9138129,48.1176253 L93.8971809,49.721847 C93.9979709,49.7429024 94.1007568,49.7537309 94.2037422,49.7539314 C95.0855052,49.7547335 95.8012141,49.0372454 95.8020125,48.151314 C95.8028108,47.3877045 95.2677256,46.7295726 94.5230769,46.5775726 Z" id="Shape" fill="#263238" fill-rule="nonzero"></path>
                    <path d="M94.9174553,64.3603694 L85.3374137,59.5477045 C84.5482578,59.1516623 83.5888565,59.4735092 83.1946778,60.2663958 C82.800499,61.0592823 83.1208316,62.023219 83.9099875,62.4192612 L93.4900291,67.2319261 C94.279185,67.6279683 95.2385863,67.3061214 95.6327651,66.5132348 C96.0269439,65.7203483 95.7066112,64.7564116 94.9174553,64.3603694 Z" id="Shape" fill="#263238" fill-rule="nonzero"></path>
                </g>
            </g>
        </g>
    </g>
</svg>